<svg width="16" height="17" viewBox="0 0 16 17" fill="none" xmlns="http://www.w3.org/2000/svg">
<path d="M15.2969 2.29688V14.7031C15.2969 15.0052 15.1901 15.263 14.9766 15.4766C14.763 15.6901 14.5052 15.7969 14.2031 15.7969H1.79688C1.49479 15.7969 1.23698 15.6901 1.02344 15.4766C0.809896 15.263 0.703125 15.0052 0.703125 14.7031V2.29688C0.703125 1.99479 0.809896 1.73698 1.02344 1.52344C1.23698 1.3099 1.49479 1.20312 1.79688 1.20312H14.2031C14.5052 1.20312 14.763 1.3099 14.9766 1.52344C15.1901 1.73698 15.2969 1.99479 15.2969 2.29688ZM14.5 14.7031V2.29688C14.5 2.21354 14.4714 2.14323 14.4141 2.08594C14.3568 2.02865 14.2865 2 14.2031 2H1.79688C1.71354 2 1.64323 2.02865 1.58594 2.08594C1.52865 2.14323 1.5 2.21354 1.5 2.29688V14.7031C1.5 14.7865 1.52865 14.8568 1.58594 14.9141C1.64323 14.9714 1.71354 15 1.79688 15H14.2031C14.2865 15 14.3568 14.9714 14.4141 14.9141C14.4714 14.8568 14.5 14.7865 14.5 14.7031ZM6.5 8.5C6.5 8.38542 6.46094 8.28906 6.38281 8.21094C6.30469 8.13281 6.20833 8.09375 6.09375 8.09375H2.90625C2.79167 8.09375 2.69531 8.13281 2.61719 8.21094C2.53906 8.28906 2.5 8.38542 2.5 8.5C2.5 8.61458 2.53906 8.71094 2.61719 8.78906C2.69531 8.86719 2.79167 8.90625 2.90625 8.90625H6.09375C6.20833 8.90625 6.30469 8.86719 6.38281 8.78906C6.46094 8.71094 6.5 8.61458 6.5 8.5ZM10.5 9C10.3646 9 10.2474 8.95052 10.1484 8.85156C10.0495 8.7526 10 8.63542 10 8.5C10 8.36458 10.0495 8.2474 10.1484 8.14844C10.2474 8.04948 10.3646 8 10.5 8C10.6354 8 10.7526 8.04948 10.8516 8.14844C10.9505 8.2474 11 8.36458 11 8.5C11 8.63542 10.9505 8.7526 10.8516 8.85156C10.7526 8.95052 10.6354 9 10.5 9ZM10.5 10.7031C9.89583 10.7031 9.3776 10.487 8.94531 10.0547C8.51302 9.6224 8.29688 9.10417 8.29688 8.5C8.29688 7.89583 8.51302 7.3776 8.94531 6.94531C9.3776 6.51302 9.89583 6.29688 10.5 6.29688C11.1042 6.29688 11.6224 6.51302 12.0547 6.94531C12.487 7.3776 12.7031 7.89583 12.7031 8.5C12.7031 9.10417 12.487 9.6224 12.0547 10.0547C11.6224 10.487 11.1042 10.7031 10.5 10.7031ZM10.5 11.5C11.3333 11.5 12.0417 11.2083 12.625 10.625C13.2083 10.0417 13.5 9.33333 13.5 8.5C13.5 7.66667 13.2083 6.95833 12.625 6.375C12.0417 5.79167 11.3333 5.5 10.5 5.5C9.66667 5.5 8.95833 5.79167 8.375 6.375C7.79167 6.95833 7.5 7.66667 7.5 8.5C7.5 9.33333 7.79167 10.0417 8.375 10.625C8.95833 11.2083 9.66667 11.5 10.5 11.5Z" fill="#828282"/>
</svg>
