<svg width="16" height="17" viewBox="0 0 16 17" fill="none" xmlns="http://www.w3.org/2000/svg">
<path d="M11.4232 4.45273V8.10898H8.5638L8.26693 8.40586C8.05859 8.60378 7.82943 8.77044 7.57943 8.90586C7.32943 9.04128 7.0638 9.14023 6.78255 9.20273L6.22005 9.31211L4.70443 13.484C4.66276 13.5986 4.59766 13.7053 4.50911 13.8043C4.42057 13.9033 4.31901 13.9788 4.20443 14.0309C4.07943 14.0829 3.95182 14.1116 3.82161 14.1168C3.69141 14.122 3.56901 14.1038 3.45443 14.0621C3.32943 14.0204 3.22005 13.9553 3.1263 13.8668C3.03255 13.7783 2.95443 13.6767 2.89193 13.5621C2.83984 13.4475 2.8112 13.3251 2.80599 13.1949C2.80078 13.0647 2.81901 12.9371 2.86068 12.8121L4.36068 8.71836L3.95443 8.26523C3.69401 7.97357 3.4987 7.64544 3.36849 7.28086C3.23828 6.91628 3.18359 6.54128 3.20443 6.15586C3.21484 5.77044 3.30078 5.40065 3.46224 5.04648C3.6237 4.69232 3.84505 4.38503 4.1263 4.12461C4.40755 3.85378 4.72786 3.64805 5.08724 3.50742C5.44661 3.3668 5.81901 3.29648 6.20443 3.29648C6.58984 3.3069 6.95964 3.38503 7.3138 3.53086C7.66797 3.67669 7.98568 3.88503 8.26693 4.15586L8.5638 4.45273H11.4232ZM14.0951 8.10898H12.1419V4.45273H14.0951V8.10898ZM8.76693 8.92148L8.84505 8.82773H13.7826C13.918 8.82773 14.0482 8.80169 14.1732 8.74961C14.2982 8.69753 14.4076 8.62461 14.5013 8.53086C14.5951 8.43711 14.668 8.32773 14.7201 8.20273C14.7721 8.07773 14.7982 7.94753 14.7982 7.81211V4.74961C14.7982 4.61419 14.7721 4.48398 14.7201 4.35898C14.668 4.23398 14.5951 4.12461 14.5013 4.03086C14.4076 3.93711 14.2982 3.86419 14.1732 3.81211C14.0482 3.76003 13.918 3.73398 13.7826 3.73398H8.84505L8.76693 3.64023C8.42318 3.3069 8.02995 3.04909 7.58724 2.8668C7.14453 2.6845 6.68359 2.59336 6.20443 2.59336C5.72526 2.58294 5.26432 2.66628 4.82161 2.84336C4.37891 3.02044 3.98047 3.27565 3.6263 3.60898C3.28255 3.9319 3.01172 4.31211 2.8138 4.74961C2.61589 5.18711 2.50651 5.64544 2.48568 6.12461C2.46484 6.60378 2.53516 7.06732 2.69661 7.51523C2.85807 7.96315 3.10026 8.3694 3.42318 8.73398L3.54818 8.87461L2.1888 12.5777C2.15755 12.6819 2.13151 12.7887 2.11068 12.898C2.08984 13.0074 2.08464 13.1142 2.09505 13.2184C2.09505 13.3329 2.10807 13.4449 2.13411 13.5543C2.16016 13.6637 2.19922 13.7704 2.2513 13.8746C2.29297 13.9684 2.34766 14.0621 2.41536 14.1559C2.48307 14.2496 2.55859 14.3329 2.64193 14.4059C2.71484 14.4788 2.80078 14.5439 2.89974 14.6012C2.9987 14.6585 3.10026 14.7079 3.20443 14.7496C3.30859 14.7913 3.41536 14.8199 3.52474 14.8355C3.63411 14.8512 3.74609 14.8538 3.86068 14.8434C3.96484 14.8434 4.07161 14.8303 4.18099 14.8043C4.29036 14.7783 4.39714 14.7392 4.5013 14.6871C4.60547 14.635 4.70182 14.5777 4.79036 14.5152C4.87891 14.4527 4.95964 14.3798 5.03255 14.2965C5.10547 14.2132 5.17057 14.1246 5.22786 14.0309C5.28516 13.9371 5.33464 13.8329 5.3763 13.7184L6.7513 9.93711L6.92318 9.89023C7.26693 9.81732 7.59505 9.70013 7.90755 9.53867C8.22005 9.37721 8.50651 9.17148 8.76693 8.92148ZM7.11068 5.92148H5.11068C5.06901 5.92148 5.02474 5.9319 4.97786 5.95273C4.93099 5.97357 4.89193 5.99961 4.86068 6.03086C4.82943 6.06211 4.80339 6.10117 4.78255 6.14805C4.76172 6.19492 4.7513 6.23919 4.7513 6.28086C4.7513 6.33294 4.76172 6.37982 4.78255 6.42148C4.80339 6.46315 4.82943 6.49961 4.86068 6.53086C4.89193 6.56211 4.93099 6.58815 4.97786 6.60898C5.02474 6.62982 5.06901 6.64023 5.11068 6.64023H7.11068C7.16276 6.64023 7.20964 6.62982 7.2513 6.60898C7.29297 6.58815 7.32943 6.56211 7.36068 6.53086C7.39193 6.49961 7.41797 6.46315 7.4388 6.42148C7.45964 6.37982 7.47005 6.33294 7.47005 6.28086C7.47005 6.23919 7.45964 6.19492 7.4388 6.14805C7.41797 6.10117 7.39193 6.06211 7.36068 6.03086C7.32943 5.99961 7.29297 5.97357 7.2513 5.95273C7.20964 5.9319 7.16276 5.92148 7.11068 5.92148Z" fill="#828282"/>
</svg>
