<svg width="16" height="17" viewBox="0 0 16 17" fill="none" xmlns="http://www.w3.org/2000/svg">
<path d="M7.96875 3.87486C7.89583 3.85403 7.81771 3.84622 7.73438 3.85142C7.65104 3.85663 7.57292 3.86965 7.5 3.89049C7.40625 3.92174 7.3151 3.91392 7.22656 3.86705C7.13802 3.82017 7.07812 3.74986 7.04688 3.65611C7.02604 3.56236 7.03906 3.47382 7.08594 3.39049C7.13281 3.30715 7.20312 3.24986 7.29688 3.21861C7.42188 3.17694 7.55469 3.15351 7.69531 3.1483C7.83594 3.14309 7.97396 3.1509 8.10938 3.17174C8.24479 3.20299 8.375 3.24726 8.5 3.30455C8.625 3.36184 8.74479 3.43736 8.85938 3.53111C8.96354 3.61444 9.05729 3.7134 9.14062 3.82799C9.22396 3.94257 9.29167 4.06236 9.34375 4.18736C9.39583 4.31236 9.43229 4.44517 9.45312 4.5858C9.47396 4.72642 9.47917 4.86444 9.46875 4.99986C9.44792 5.13528 9.41406 5.27069 9.36719 5.40611C9.32031 5.54153 9.26042 5.66653 9.1875 5.78111C9.10417 5.89569 9.01302 5.99986 8.91406 6.09361C8.8151 6.18736 8.70312 6.26549 8.57812 6.32799C8.45312 6.39049 8.32292 6.43736 8.1875 6.46861C8.05208 6.49986 7.91667 6.51549 7.78125 6.51549H1.78125C1.67708 6.51549 1.59115 6.48163 1.52344 6.41392C1.45573 6.34622 1.42188 6.26549 1.42188 6.17174C1.42188 6.06757 1.45573 5.98163 1.52344 5.91392C1.59115 5.84622 1.67708 5.81236 1.78125 5.81236H7.78125C7.86458 5.81236 7.94531 5.80194 8.02344 5.78111C8.10156 5.76028 8.17188 5.73424 8.23438 5.70299C8.30729 5.66132 8.375 5.61444 8.4375 5.56236C8.5 5.51028 8.55208 5.44778 8.59375 5.37486C8.63542 5.31236 8.67188 5.24205 8.70312 5.16392C8.73438 5.0858 8.75 5.01028 8.75 4.93736C8.76042 4.85403 8.76042 4.7733 8.75 4.69517C8.73958 4.61705 8.71875 4.53632 8.6875 4.45299C8.65625 4.38007 8.61719 4.31236 8.57031 4.24986C8.52344 4.18736 8.46875 4.13007 8.40625 4.07799C8.34375 4.0259 8.27604 3.98163 8.20312 3.94517C8.13021 3.90872 8.05208 3.88528 7.96875 3.87486ZM13.7031 5.87486C13.599 5.85403 13.4922 5.84622 13.3828 5.85142C13.2734 5.85663 13.1667 5.87486 13.0625 5.90611C12.9583 5.93736 12.8594 5.98163 12.7656 6.03892C12.6719 6.09622 12.5885 6.16132 12.5156 6.23424C12.4427 6.30715 12.3568 6.34361 12.2578 6.34361C12.1589 6.34361 12.0781 6.30715 12.0156 6.23424C11.9427 6.17174 11.9062 6.09101 11.9062 5.99205C11.9062 5.89309 11.9427 5.80715 12.0156 5.73424C12.1302 5.61965 12.2604 5.51809 12.4062 5.42955C12.5521 5.34101 12.7031 5.2759 12.8594 5.23424C13.0156 5.18215 13.1771 5.15351 13.3438 5.1483C13.5104 5.14309 13.6771 5.15611 13.8438 5.18736C14 5.21861 14.1536 5.27069 14.3047 5.34361C14.4557 5.41653 14.5938 5.50507 14.7188 5.60924C14.8542 5.7134 14.9714 5.83059 15.0703 5.9608C15.1693 6.09101 15.25 6.23424 15.3125 6.39049C15.375 6.54674 15.4193 6.70559 15.4453 6.86705C15.4714 7.02851 15.474 7.19257 15.4531 7.35924C15.4427 7.5259 15.4089 7.68736 15.3516 7.84361C15.2943 7.99986 15.2188 8.14569 15.125 8.28111C15.0312 8.42694 14.9219 8.55455 14.7969 8.66392C14.6719 8.7733 14.5365 8.86965 14.3906 8.95299C14.2448 9.0259 14.0911 9.08319 13.9297 9.12486C13.7682 9.16653 13.6042 9.18736 13.4375 9.18736H1.78125C1.67708 9.18736 1.59115 9.15351 1.52344 9.0858C1.45573 9.01809 1.42188 8.93215 1.42188 8.82799C1.42188 8.73424 1.45573 8.65351 1.52344 8.5858C1.59115 8.51809 1.67708 8.48424 1.78125 8.48424H13.4375C13.5521 8.48424 13.6615 8.47121 13.7656 8.44517C13.8698 8.41913 13.9688 8.38007 14.0625 8.32799C14.1562 8.2759 14.2422 8.2134 14.3203 8.14049C14.3984 8.06757 14.4688 7.98424 14.5312 7.89049C14.5938 7.80715 14.6432 7.7134 14.6797 7.60924C14.7161 7.50507 14.7396 7.4009 14.75 7.29674C14.7604 7.19257 14.7578 7.0858 14.7422 6.97642C14.7266 6.86705 14.6979 6.76549 14.6562 6.67174C14.6146 6.56757 14.5599 6.47122 14.4922 6.38267C14.4245 6.29413 14.349 6.21861 14.2656 6.15611C14.1927 6.08319 14.1068 6.0233 14.0078 5.97642C13.9089 5.92955 13.8073 5.89569 13.7031 5.87486ZM9.78125 11.1405C9.91667 11.1405 10.0521 11.1587 10.1875 11.1952C10.3229 11.2316 10.4531 11.2811 10.5781 11.3436C10.7031 11.4061 10.8151 11.4842 10.9141 11.578C11.013 11.6717 11.1042 11.7759 11.1875 11.8905C11.2604 12.0051 11.3203 12.1275 11.3672 12.2577C11.4141 12.3879 11.4479 12.5259 11.4688 12.6717C11.4792 12.8072 11.474 12.9426 11.4531 13.078C11.4323 13.2134 11.3958 13.3488 11.3438 13.4842C11.2917 13.6092 11.224 13.7264 11.1406 13.8358C11.0573 13.9452 10.9635 14.0467 10.8594 14.1405C10.7448 14.2238 10.625 14.2967 10.5 14.3592C10.375 14.4217 10.2448 14.4634 10.1094 14.4842C9.97396 14.5155 9.83594 14.5285 9.69531 14.5233C9.55469 14.5181 9.42188 14.4947 9.29688 14.453C9.20312 14.4217 9.13281 14.3618 9.08594 14.2733C9.03906 14.1848 9.02604 14.0936 9.04688 13.9999C9.07812 13.9061 9.13802 13.8358 9.22656 13.7889C9.3151 13.742 9.40625 13.7342 9.5 13.7655C9.57292 13.7863 9.65104 13.7993 9.73438 13.8045C9.81771 13.8098 9.89583 13.8072 9.96875 13.7967C10.0521 13.7759 10.1302 13.7499 10.2031 13.7186C10.276 13.6874 10.3438 13.6457 10.4062 13.5936C10.4688 13.5415 10.5234 13.4816 10.5703 13.4139C10.6172 13.3462 10.6562 13.2759 10.6875 13.203C10.7188 13.1301 10.7396 13.0545 10.75 12.9764C10.7604 12.8983 10.7604 12.8176 10.75 12.7342C10.75 12.6509 10.7344 12.5728 10.7031 12.4999C10.6719 12.4269 10.6354 12.354 10.5938 12.2811C10.5521 12.2186 10.5 12.1613 10.4375 12.1092C10.375 12.0572 10.3073 12.0103 10.2344 11.9686C10.1719 11.9269 10.1016 11.8983 10.0234 11.8827C9.94531 11.867 9.86458 11.8592 9.78125 11.8592H1.78125C1.67708 11.8592 1.59115 11.8228 1.52344 11.7499C1.45573 11.6769 1.42188 11.5936 1.42188 11.4999C1.42188 11.4061 1.45573 11.3228 1.52344 11.2499C1.59115 11.1769 1.67708 11.1405 1.78125 11.1405H9.78125Z" fill="#828282"/>
</svg>
