<svg width="16" height="17" viewBox="0 0 16 17" fill="none" xmlns="http://www.w3.org/2000/svg">
<path d="M4.40625 1.95312C4.47917 1.88021 4.5625 1.84115 4.65625 1.83594C4.75 1.83073 4.83333 1.86458 4.90625 1.9375L8 4.82812L11.0938 1.9375C11.1667 1.86458 11.25 1.83073 11.3438 1.83594C11.4375 1.84115 11.5208 1.88021 11.5938 1.95312C11.6562 2.02604 11.6875 2.11198 11.6875 2.21094C11.6875 2.3099 11.651 2.39062 11.5781 2.45312L8.90625 4.96875H13.3281C13.7865 4.96875 14.1823 5.1224 14.5156 5.42969C14.849 5.73698 15.0156 6.11458 15.0156 6.5625V13.4375C15.0156 13.8958 14.849 14.2786 14.5156 14.5859C14.1823 14.8932 13.7865 15.0469 13.3281 15.0469H2.67188C2.21354 15.0469 1.81771 14.8932 1.48438 14.5859C1.15104 14.2786 0.984375 13.8958 0.984375 13.4375V6.5625C0.984375 6.11458 1.15104 5.73698 1.48438 5.42969C1.81771 5.1224 2.21354 4.96875 2.67188 4.96875H7.09375L4.42188 2.45312C4.34896 2.39062 4.3125 2.3099 4.3125 2.21094C4.3125 2.11198 4.34375 2.02604 4.40625 1.95312ZM8 5.67188H2.67188C2.39062 5.67188 2.15625 5.76302 1.96875 5.94531C1.78125 6.1276 1.6875 6.33333 1.6875 6.5625V13.4375C1.6875 13.6771 1.78125 13.888 1.96875 14.0703C2.15625 14.2526 2.39062 14.3438 2.67188 14.3438H13.3281C13.6094 14.3438 13.8438 14.2526 14.0312 14.0703C14.2188 13.888 14.3125 13.6771 14.3125 13.4375V6.5625C14.3125 6.33333 14.2188 6.1276 14.0312 5.94531C13.8438 5.76302 13.6094 5.67188 13.3281 5.67188H8Z" fill="#828282"/>
</svg>
