<svg width="136" height="143" viewBox="0 0 136 143" fill="none" xmlns="http://www.w3.org/2000/svg">
<path fill-rule="evenodd" clip-rule="evenodd" d="M108.07 73.162V42.3262L103.275 39.0195H103.213V73.162H108.07Z" fill="white"/>
<path d="M77.2418 115.88C75.6648 115.88 74.4214 116.549 73.5115 117.888C72.6775 119.091 72.2605 120.582 72.2605 122.362C72.2605 124.158 72.6775 125.657 73.5115 126.859C74.4214 128.199 75.6648 128.868 77.2418 128.868C78.8188 128.868 80.0623 128.199 80.9721 126.859C81.7909 125.657 82.2004 124.158 82.2004 122.362C82.2004 120.597 81.7909 119.106 80.9721 117.888C80.0623 116.549 78.8188 115.88 77.2418 115.88ZM77.2418 113.574C79.668 113.574 81.5559 114.48 82.9055 116.291C84.1034 117.904 84.6948 119.928 84.6796 122.362C84.6493 125.026 84.0276 127.126 82.8145 128.663C81.4953 130.337 79.6377 131.174 77.2418 131.174C74.8611 131.174 72.996 130.337 71.6464 128.663C70.403 127.095 69.7812 124.995 69.7812 122.362C69.7812 119.897 70.3726 117.866 71.5554 116.268C72.8898 114.472 74.7853 113.574 77.2418 113.574ZM95.418 116.496C94.6598 116.116 93.6438 115.925 92.37 115.925C90.3988 115.925 89.4131 116.656 89.4131 118.117C89.4131 118.817 90.0272 119.555 91.2555 120.331C92.2715 120.985 93.0676 121.503 93.6438 121.883C94.22 122.264 94.5688 122.515 94.6901 122.636C95.9184 123.717 96.5325 124.965 96.5325 126.38C96.5325 127.963 95.9259 129.203 94.7128 130.101C93.6817 130.862 92.4459 131.242 91.0053 131.242C89.5647 131.242 88.2455 130.976 87.0476 130.443L87.3433 127.909C88.4805 128.549 89.7315 128.868 91.0963 128.868C93.1131 128.868 94.1215 127.978 94.1215 126.197C94.1215 125.497 93.5073 124.736 92.2791 123.915C91.1721 123.169 90.3305 122.598 89.7543 122.203C89.1932 121.807 88.89 121.594 88.8445 121.564C87.6314 120.514 87.0248 119.365 87.0248 118.117C87.0248 116.701 87.5707 115.568 88.6625 114.716C89.6481 113.955 90.8916 113.574 92.3928 113.574C93.6362 113.574 94.7811 113.772 95.8274 114.168L95.418 116.496ZM109.337 116.176H104.719V130.808H102.24V116.176H97.6451V113.917H109.337V116.176ZM119.73 130.9H111.086V113.871H119.48V116.199H113.566V120.947H119.161V123.276H113.566V128.549H119.73V130.9ZM131.214 130.808H122.662V113.917H125.119V128.457H131.214V130.808Z" fill="white"/>
<path d="M14.5584 130.9H11.8289L4.55028 118.14V130.9H2.09375V113.871H4.7095L12.1018 126.837V113.871H14.5584V130.9ZM26.6946 130.9H18.0512V113.871H26.4444V116.199H20.5305V120.947H26.1259V123.276H20.5305V128.549H26.6946V130.9ZM37.5198 116.496C36.7615 116.116 35.7456 115.925 34.4718 115.925C32.5005 115.925 31.5149 116.656 31.5149 118.117C31.5149 118.817 32.129 119.555 33.3573 120.331C34.3733 120.985 35.1694 121.503 35.7456 121.883C36.3218 122.264 36.6706 122.515 36.7919 122.636C38.0201 123.717 38.6343 124.965 38.6343 126.38C38.6343 127.963 38.0277 129.203 36.8146 130.101C35.7835 130.862 34.5476 131.242 33.1071 131.242C31.6665 131.242 30.3473 130.976 29.1493 130.443L29.445 127.909C30.5823 128.549 31.8333 128.868 33.198 128.868C35.2148 128.868 36.2232 127.978 36.2232 126.197C36.2232 125.497 35.6091 124.736 34.3808 123.915C33.2739 123.169 32.4323 122.598 31.856 122.203C31.295 121.807 30.9917 121.594 30.9462 121.564C29.7331 120.514 29.1266 119.365 29.1266 118.117C29.1266 116.701 29.6725 115.568 30.7643 114.716C31.7499 113.955 32.9933 113.574 34.4945 113.574C35.738 113.574 36.8829 113.772 37.9292 114.168L37.5198 116.496ZM51.4385 116.176H46.8209V130.808H44.3417V116.176H39.747V113.917H51.4385V116.176Z" fill="white"/>
<path fill-rule="evenodd" clip-rule="evenodd" d="M80.5208 16.6445L34.5879 47.5556H45.6422L83.7744 21.8941L80.5208 16.6445Z" fill="white"/>
<path fill-rule="evenodd" clip-rule="evenodd" d="M80.7177 16.6445L128.418 47.5556H117.062L77.375 21.8376L80.7177 16.6445Z" fill="white"/>
<path fill-rule="evenodd" clip-rule="evenodd" d="M68.3139 14.5975C66.88 14.0374 65.4015 13.5503 63.8813 13.1416C41.0038 6.98971 17.406 20.9232 11.1743 44.2629C4.94264 67.6028 18.4369 91.5104 41.3146 97.6622C44.4459 98.5044 47.5907 98.9699 50.7026 99.0869V92.8966C48.1153 92.7839 45.5053 92.3887 42.909 91.6906C23.4094 86.4471 11.7487 65.9978 17.1247 45.863C22.5006 25.7284 42.7875 13.8697 62.2872 19.1132C62.6862 19.2205 63.0819 19.3342 63.4743 19.4541L68.3139 14.5975ZM57.8106 98.7488C56.2473 98.9571 54.6656 99.0784 53.0719 99.1088V92.9209C54.6679 92.8847 56.2502 92.7421 57.8106 92.4981V98.7488ZM60.18 98.3641C69.9592 96.4895 78.8778 91.1956 85.32 83.4359L79.8947 80.2925C74.6841 86.2189 67.7571 90.3367 60.18 92.0459V98.3641Z" fill="white"/>
<path fill-rule="evenodd" clip-rule="evenodd" d="M53.0723 44.1046V131.729H57.8109V40.8975H57.7503L53.0723 44.1046Z" fill="white"/>
<path d="M57.0684 70.7236H103.211" stroke="white" stroke-width="5.33333"/>
<path d="M64.4464 59.9204C66.8018 59.9204 68.7113 58.0041 68.7113 55.6404C68.7113 53.2766 66.8018 51.3604 64.4464 51.3604C62.0911 51.3604 60.1816 53.2766 60.1816 55.6404C60.1816 58.0041 62.0911 59.9204 64.4464 59.9204Z" fill="white"/>
<path d="M71.3175 65.1507H61.8402H61.6032C60.466 65.1507 60.1816 64.3579 60.1816 63.9618V63.4863V61.8218C60.1816 61.0609 60.9716 60.7123 61.3663 60.6329H61.8402H69.4221V60.3951V55.6396C69.4221 54.8787 70.212 54.6885 70.6067 54.6885H72.7391C73.4973 54.6885 73.6869 55.3224 73.6869 55.6396V63.2485C73.6869 64.3898 72.1075 64.9923 71.3175 65.1507Z" fill="white"/>
<path d="M75.3418 64.7308V54.6885H95.4812C97.7557 54.6885 98.4822 56.7491 98.5613 57.7796V64.7308H75.3418Z" fill="white"/>
<path fill-rule="evenodd" clip-rule="evenodd" d="M59.2324 121.063V122.68H66.0699H66.3115V130.303H67.762V114.596V114.134H66.3115V120.832L66.0699 121.063H59.2324Z" fill="white"/>
<path d="M59.2317 121.063V120.588H58.7578V121.063H59.2317ZM59.2317 122.68H58.7578V123.156H59.2317V122.68ZM66.3108 122.68H66.7847V122.204H66.3108V122.68ZM66.3108 130.303H65.8369V130.778H66.3108V130.303ZM67.7613 130.303V130.778H68.2352V130.303H67.7613ZM67.7613 114.134H68.2352V113.658H67.7613V114.134ZM66.3108 114.134V113.658H65.8369V114.134H66.3108ZM66.3108 120.832L66.6373 121.177L66.7847 121.036V120.832H66.3108ZM66.0691 121.063V121.539H66.2582L66.3956 121.408L66.0691 121.063ZM58.7578 121.063V122.68H59.7055V121.063H58.7578ZM66.0691 122.204H59.2317V123.156H66.0691V122.204ZM66.3108 122.204H66.0691V123.156H66.3108V122.204ZM66.7847 130.303V122.68H65.8369V130.303H66.7847ZM67.7613 129.827H66.3108V130.778H67.7613V129.827ZM67.2874 114.596V130.303H68.2352V114.596H67.2874ZM67.2874 114.134V114.596H68.2352V114.134H67.2874ZM66.3108 114.609H67.7613V113.658H66.3108V114.609ZM66.7847 120.832V114.134H65.8369V120.832H66.7847ZM66.3956 121.408L66.6373 121.177L65.9838 120.488L65.7421 120.719L66.3956 121.408ZM59.2317 121.539H66.0691V120.588H59.2317V121.539Z" fill="white"/>
</svg>
