<svg width="16" height="17" viewBox="0 0 16 17" fill="none" xmlns="http://www.w3.org/2000/svg">
<path d="M15.4219 13.4531H15.4062C15.3646 13.5052 15.3177 13.5443 15.2656 13.5703C15.2135 13.5964 15.1562 13.6094 15.0938 13.6094H1.54688C1.46354 13.6094 1.39844 13.6016 1.35156 13.5859C1.30469 13.5703 1.27083 13.5521 1.25 13.5312C1.22917 13.5104 1.20833 13.4766 1.1875 13.4297C1.16667 13.3828 1.15625 13.3177 1.15625 13.2344C1.15625 12.349 1.31771 11.5286 1.64062 10.7734C1.96354 10.0182 2.44271 9.33333 3.07812 8.71875C3.72396 8.09375 4.43229 7.625 5.20312 7.3125C5.97396 7 6.8125 6.84375 7.71875 6.84375H10.7656C10.8594 6.84375 10.9297 6.85417 10.9766 6.875C11.0234 6.89583 11.0573 6.91667 11.0781 6.9375C11.1094 6.95833 11.1328 6.99219 11.1484 7.03906C11.1641 7.08594 11.1719 7.15104 11.1719 7.23438C11.1719 7.29688 11.1641 7.34896 11.1484 7.39062C11.1328 7.43229 11.1094 7.46875 11.0781 7.5C11.0365 7.53125 10.9922 7.55729 10.9453 7.57812C10.8984 7.59896 10.8385 7.60938 10.7656 7.60938H7.71875C6.98958 7.60938 6.30469 7.73177 5.66406 7.97656C5.02344 8.22135 4.43229 8.58333 3.89062 9.0625C3.34896 9.54167 2.92188 10.0781 2.60938 10.6719C2.29688 11.2656 2.09896 11.9167 2.01562 12.625L1.98438 12.875H14.5781L12.2812 4.70312C12.1875 4.42188 12.0625 4.16667 11.9062 3.9375C11.75 3.70833 11.5521 3.50521 11.3125 3.32812C11.0833 3.15104 10.8359 3.01823 10.5703 2.92969C10.3047 2.84115 10.026 2.79688 9.73438 2.79688H6.46875C6.38542 2.79688 6.32031 2.78646 6.27344 2.76562C6.22656 2.74479 6.19271 2.72396 6.17188 2.70312C6.15104 2.68229 6.13281 2.65104 6.11719 2.60938C6.10156 2.56771 6.09375 2.50521 6.09375 2.42188C6.09375 2.33854 6.10156 2.27604 6.11719 2.23438C6.13281 2.19271 6.15104 2.16146 6.17188 2.14062C6.19271 2.11979 6.22656 2.10156 6.27344 2.08594C6.32031 2.07031 6.38542 2.0625 6.46875 2.0625H9.73438C10.1094 2.0625 10.4688 2.11719 10.8125 2.22656C11.1562 2.33594 11.4844 2.50521 11.7969 2.73438C12.1094 2.95312 12.3672 3.20833 12.5703 3.5C12.7734 3.79167 12.9271 4.10938 13.0312 4.45312L15.4688 13.1094C15.4688 13.1615 15.4661 13.2109 15.4609 13.2578C15.4557 13.3047 15.4479 13.3438 15.4375 13.375C15.4375 13.3958 15.4349 13.4141 15.4297 13.4297C15.4245 13.4453 15.4219 13.4531 15.4219 13.4531Z" fill="#828282"/>
</svg>
