<svg width="16" height="17" viewBox="0 0 16 17" fill="none" xmlns="http://www.w3.org/2000/svg">
<path d="M3.75 1.39062H12.25C12.5521 1.39062 12.8073 1.49479 13.0156 1.70312C13.224 1.91146 13.3281 2.16667 13.3281 2.46875V13.6562C13.3281 13.9479 13.224 14.1979 13.0156 14.4062C12.8073 14.6146 12.5521 14.7188 12.25 14.7188H3.75C3.44792 14.7188 3.19271 14.6146 2.98438 14.4062C2.77604 14.1979 2.67188 13.9479 2.67188 13.6562V2.46875C2.67188 2.16667 2.77604 1.91146 2.98438 1.70312C3.19271 1.49479 3.44792 1.39062 3.75 1.39062ZM12.5781 6.28125V2.14062H3.42188V6.28125H5.5V4.89062H6.25V6.28125H12.5781ZM3.42188 7.03125V13.9688H12.5781V7.03125H6.25V9.125H5.5V7.03125H3.42188Z" fill="#828282"/>
</svg>
