<svg width="88" height="62" viewBox="0 0 88 62" fill="none" xmlns="http://www.w3.org/2000/svg">
<path d="M23.2817 41.1338L15.6804 33.3516C19.2397 29.7922 23.418 26.9725 28.2152 24.8924C33.0125 22.8124 38.185 21.7711 43.7327 21.7687C49.2828 21.7687 54.4565 22.8244 59.2538 24.9359C64.051 27.0473 68.2281 29.9129 71.785 33.5326L64.1837 41.1338C61.5293 38.4794 58.4526 36.3981 54.9536 34.8899C51.4546 33.3817 47.7143 32.6276 43.7327 32.6276C39.7511 32.6276 36.0108 33.3817 32.5118 34.8899C29.0128 36.3981 25.9361 38.4794 23.2817 41.1338ZM7.89814 25.7503L0.296875 18.149C5.84701 12.4783 12.3322 8.04418 19.7525 4.84682C27.1728 1.64946 35.1662 0.0507812 43.7327 0.0507812C52.2992 0.0507812 60.2926 1.64946 67.7129 4.84682C75.1332 8.04418 81.6184 12.4783 87.1685 18.149L79.5672 25.7503C74.922 21.1051 69.5372 17.4697 63.4127 14.8443C57.2883 12.2188 50.7283 10.9073 43.7327 10.9097C36.7347 10.9097 30.1735 12.2225 24.049 14.8479C17.9246 17.4734 12.5409 21.1075 7.89814 25.7503ZM43.7327 61.5849L56.492 48.7351C54.8631 47.1063 52.9628 45.8237 50.791 44.8874C48.6192 43.9511 46.2665 43.4842 43.7327 43.4866C41.1989 43.4866 38.8462 43.9547 36.6744 44.891C34.5026 45.8273 32.6023 47.1087 30.9734 48.7351L43.7327 61.5849Z" fill="#377DBE"/>
</svg>
