<svg width="85" height="62" viewBox="0 0 85 62" fill="none" xmlns="http://www.w3.org/2000/svg">
<path d="M82.3221 29.1868C78.6148 12.4264 73.0356 3.48083 64.7595 1.0373C63.0198 0.527009 61.2152 0.272072 59.4022 0.280475C57.0059 0.280475 54.9189 0.864264 52.7114 1.48301C50.0511 2.22935 47.029 3.07707 42.6226 3.07707C38.2162 3.07707 35.1924 2.2311 32.5269 1.48476C30.3176 0.864264 28.2324 0.280475 25.8431 0.280475C23.9683 0.273974 22.1018 0.528099 20.2971 1.03556C12.0646 3.4686 6.48885 12.4107 2.72743 29.1763C-1.31715 47.2179 0.673674 58.6087 8.31013 61.2515C9.3569 61.6205 10.4583 61.8108 11.5682 61.8143C16.7996 61.8143 20.9944 57.4569 23.861 53.8895C27.0998 49.8519 30.8909 47.8034 42.6226 47.8034C53.1011 47.8034 57.4376 49.2244 61.1833 53.8895C63.5377 56.8224 65.7627 58.8744 67.9825 60.1661C70.9347 61.8825 73.8851 62.2635 76.7499 61.2795C81.2629 59.7396 83.8497 55.6688 84.4405 49.1772C84.8897 44.1993 84.1976 37.6605 82.3221 29.1868ZM34.2328 28.2464H28.6396V33.8396C28.6396 34.5813 28.345 35.2927 27.8205 35.8171C27.2961 36.3416 26.5848 36.6362 25.8431 36.6362C25.1013 36.6362 24.39 36.3416 23.8656 35.8171C23.3411 35.2927 23.0465 34.5813 23.0465 33.8396V28.2464H17.4533C16.7116 28.2464 16.0002 27.9518 15.4758 27.4273C14.9513 26.9029 14.6567 26.1915 14.6567 25.4498C14.6567 24.7081 14.9513 23.9968 15.4758 23.4724C16.0002 22.9479 16.7116 22.6532 17.4533 22.6532H23.0465V17.0601C23.0465 16.3184 23.3411 15.607 23.8656 15.0826C24.39 14.5581 25.1013 14.2635 25.8431 14.2635C26.5848 14.2635 27.2961 14.5581 27.8205 15.0826C28.345 15.607 28.6396 16.3184 28.6396 17.0601V22.6532H34.2328C34.9745 22.6532 35.6859 22.9479 36.2103 23.4724C36.7348 23.9968 37.0294 24.7081 37.0294 25.4498C37.0294 26.1915 36.7348 26.9029 36.2103 27.4273C35.6859 27.9518 34.9745 28.2464 34.2328 28.2464ZM48.915 28.9456C48.2236 28.9456 47.5477 28.7406 46.9728 28.3565C46.398 27.9723 45.9499 27.4264 45.6853 26.7876C45.4207 26.1488 45.3515 25.446 45.4864 24.7679C45.6213 24.0898 45.9542 23.4669 46.4431 22.978C46.932 22.4891 47.5549 22.1562 48.233 22.0213C48.9111 21.8864 49.614 21.9556 50.2527 22.2202C50.8915 22.4848 51.4375 22.9328 51.8216 23.5077C52.2057 24.0826 52.4107 24.7585 52.4107 25.4498C52.4107 26.377 52.0424 27.2661 51.3869 27.9217C50.7313 28.5773 49.8421 28.9456 48.915 28.9456ZM56.6056 36.6362C55.9139 36.6362 55.2376 36.431 54.6626 36.0465C54.0875 35.662 53.6395 35.1155 53.3751 34.4762C53.1108 33.837 53.0421 33.1336 53.1777 32.4553C53.3133 31.7769 53.6471 31.1541 54.1369 30.6655C54.6266 30.177 55.2503 29.8447 55.929 29.7108C56.6077 29.577 57.3108 29.6474 57.9495 29.9134C58.5881 30.1793 59.1334 30.6287 59.5165 31.2047C59.8995 31.7807 60.1031 32.4575 60.1014 33.1492C60.0991 34.0748 59.7297 34.9618 59.0744 35.6154C58.4191 36.2691 57.5312 36.6362 56.6056 36.6362ZM56.6056 21.255C55.9142 21.255 55.2384 21.0499 54.6635 20.6658C54.0886 20.2817 53.6406 19.7357 53.376 19.097C53.1114 18.4582 53.0422 17.7553 53.1771 17.0772C53.3119 16.3991 53.6449 15.7762 54.1338 15.2873C54.6226 14.7985 55.2455 14.4655 55.9236 14.3306C56.6017 14.1957 57.3046 14.265 57.9434 14.5296C58.5822 14.7941 59.1281 15.2422 59.5122 15.8171C59.8964 16.3919 60.1014 17.0678 60.1014 17.7592C60.1014 18.6863 59.7331 19.5755 59.0775 20.2311C58.4219 20.8867 57.5328 21.255 56.6056 21.255ZM64.2963 28.9456C63.6049 28.9456 62.929 28.7406 62.3541 28.3565C61.7793 27.9723 61.3312 27.4264 61.0666 26.7876C60.802 26.1488 60.7328 25.446 60.8677 24.7679C61.0026 24.0898 61.3355 23.4669 61.8244 22.978C62.3133 22.4891 62.9362 22.1562 63.6143 22.0213C64.2924 21.8864 64.9953 21.9556 65.634 22.2202C66.2728 22.4848 66.8188 22.9328 67.2029 23.5077C67.587 24.0826 67.792 24.7585 67.792 25.4498C67.792 26.377 67.4237 27.2661 66.7681 27.9217C66.1126 28.5773 65.2234 28.9456 64.2963 28.9456Z" fill="#377DBE"/>
</svg>
