<svg width="64" height="62" viewBox="0 0 64 62" fill="none" xmlns="http://www.w3.org/2000/svg">
<path d="M45.8669 44.1757C42.8527 46.3501 39.1766 47.4096 35.4674 47.1729H26.839V61.705H18.2106V20.8336H36.0124C39.555 20.6458 43.0439 21.7603 45.8215 23.9671C47.1175 25.222 48.1195 26.7483 48.7555 28.4365C49.3915 30.1246 49.6458 31.9327 49.4999 33.7308C49.7335 35.6337 49.5275 37.5648 48.8976 39.3756C48.2678 41.1864 47.231 42.8285 45.8669 44.1757ZM39.055 29.462C37.7427 28.4998 36.1391 28.0187 34.5138 28.0996H26.839V40.134H34.5138C36.1543 40.2209 37.7697 39.7039 39.055 38.6808C39.6297 38.0801 40.0721 37.3656 40.3537 36.5834C40.6353 35.8012 40.7498 34.9687 40.6899 34.1395C40.7956 33.2866 40.7031 32.4209 40.4195 31.6096C40.1359 30.7983 39.669 30.0634 39.055 29.462ZM63.6232 17.246C63.872 16.7035 63.8971 16.0848 63.6931 15.5239C63.4891 14.9629 63.0725 14.5049 62.5333 14.2488L32.2431 0.170898L1.77129 14.2488C1.49994 14.374 1.25592 14.5515 1.05315 14.771C0.850387 14.9906 0.692849 15.2479 0.589534 15.5283C0.486218 15.8088 0.439149 16.1068 0.451013 16.4054C0.462877 16.704 0.533442 16.9974 0.658679 17.2687C0.783916 17.5401 0.961372 17.7841 1.18092 17.9869C1.40046 18.1896 1.65779 18.3472 1.93822 18.4505C2.21865 18.5538 2.51668 18.6009 2.81529 18.589C3.11391 18.5772 3.40727 18.5066 3.67862 18.3814L32.2431 5.16628L60.8077 18.3359C61.3502 18.5847 61.9689 18.6097 62.5298 18.4058C63.0908 18.2018 63.5488 17.7852 63.8049 17.246H63.6232Z" fill="#377DBE"/>
</svg>
