<svg width="63" height="62" viewBox="0 0 63 62" fill="none" xmlns="http://www.w3.org/2000/svg">
<path d="M11.9297 19.353L13.6138 17.6366C15.4922 15.7582 18.6013 15.7582 20.5445 17.7661L20.6092 17.8633C22.1962 19.4826 24.3013 20.2599 26.6007 20.4866C29.7422 20.778 32.7865 22.4621 34.7945 25.5065C36.9967 29.0042 36.9643 33.6678 34.6649 37.1332C33.7976 38.5047 32.6313 39.6622 31.2533 40.5192C29.8753 41.3761 28.3213 41.9102 26.7077 42.0816C25.094 42.2529 23.4625 42.057 21.9353 41.5085C20.4081 40.96 19.0247 40.0732 17.8888 38.9144C16.0751 37.1332 15.0388 34.8337 14.7797 32.4371C14.5206 30.0729 13.5814 27.8383 11.9297 26.1866C10.0513 24.3405 10.0513 21.2315 11.9297 19.353ZM25.532 45.3917C21.7428 45.3917 18.2126 43.9343 15.5893 41.2462C13.3223 38.9144 11.8973 35.9996 11.541 32.8258C11.4439 31.8542 11.1524 30.5911 10.3751 29.4252C8.43196 32.1133 7.26605 35.3519 7.26605 38.9144C7.26605 44.2258 9.85696 48.9218 13.8405 51.8689H55.8456V48.6303C55.8456 36.9712 48.1052 27.0934 37.5149 23.8548C40.3973 28.3888 40.3325 34.4451 37.3854 38.9144C34.7945 42.9627 30.3251 45.3917 25.532 45.3917ZM42.1785 18.0576H46.2916C49.1092 18.0576 51.5706 20.0332 51.5706 23.5633V25.9599H55.6189V22.7212C55.6189 17.8633 51.3115 14.1712 46.2916 14.1712H42.1785C39.4905 14.1712 37.191 11.5155 37.191 8.7951C37.191 6.07464 39.4905 4.06669 42.1785 4.06669V0.0507812C37.191 0.0507812 33.1751 4.06669 33.1751 9.05419C33.1751 14.0417 37.191 18.0576 42.1785 18.0576ZM8.88537 18.0252C9.07969 17.7013 9.33878 17.3775 9.63025 17.0536L11.3143 15.3695C11.6058 15.078 11.9297 14.8513 12.2535 14.6246L7.68707 9.99339C8.14048 9.11896 7.97855 7.98544 7.26605 7.24055C6.80227 6.7891 6.1806 6.53648 5.53338 6.53648C4.88615 6.53648 4.26449 6.7891 3.80071 7.24055C3.3473 7.69396 3.1206 8.24453 3.08821 8.82748C2.50526 8.85987 1.95469 9.08657 1.50128 9.53998C0.562074 10.4792 0.562074 12.0337 1.50128 13.0053C2.24616 13.7178 3.3473 13.8798 4.25412 13.4263L8.88537 18.0252ZM53.87 7.79112C55.5217 6.13942 56.5581 3.90476 56.5581 1.41101H52.5098C52.5098 4.09908 50.2427 6.36612 47.5547 6.36612V10.382C53.5785 10.382 58.3069 15.3048 58.3069 21.3286V29.1985H62.3229V21.3286C62.339 18.5036 61.5534 15.7319 60.0571 13.3356C58.5608 10.9393 56.4154 9.0167 53.87 7.79112ZM10.5047 61.5849H55.8456C59.4405 61.5849 62.3229 58.7025 62.3229 55.1076H4.02741C4.02741 56.8255 4.70984 58.473 5.92456 59.6877C7.13929 60.9024 8.78681 61.5849 10.5047 61.5849Z" fill="#377DBE"/>
</svg>
