<svg width="63" height="62" viewBox="0 0 63 62" fill="none" xmlns="http://www.w3.org/2000/svg">
<path d="M31.3686 14.1559C35.8195 14.1559 40.088 15.924 43.2353 19.0713C46.3825 22.2185 48.1506 26.4871 48.1506 30.9379C48.1506 37.1473 44.7662 42.5735 39.7596 45.4824V50.517C39.7596 51.2588 39.4649 51.9702 38.9404 52.4947C38.4158 53.0193 37.7044 53.314 36.9626 53.314H25.7746C25.0328 53.314 24.3214 53.0193 23.7968 52.4947C23.2723 51.9702 22.9776 51.2588 22.9776 50.517V45.4824C17.971 42.5735 14.5866 37.1473 14.5866 30.9379C14.5866 26.4871 16.3547 22.2185 19.5019 19.0713C22.6492 15.924 26.9177 14.1559 31.3686 14.1559ZM36.9626 56.111V58.908C36.9626 59.6498 36.6679 60.3612 36.1434 60.8857C35.6188 61.4103 34.9074 61.705 34.1656 61.705H28.5716C27.8298 61.705 27.1184 61.4103 26.5938 60.8857C26.0693 60.3612 25.7746 59.6498 25.7746 58.908V56.111H36.9626ZM53.7446 28.1409H62.1356V33.7349H53.7446V28.1409ZM0.601562 28.1409H8.99257V33.7349H0.601562V28.1409ZM34.1656 0.170898V8.56191H28.5716V0.170898H34.1656ZM11.5658 7.16341L17.5234 13.149L13.5517 17.0928L7.59407 11.1631L11.5658 7.16341ZM45.2138 13.121L51.1434 7.16341L55.1431 11.1631L49.1855 17.0928L45.2138 13.121Z" fill="#377DBE"/>
</svg>
