<svg width="51" height="62" viewBox="0 0 51 62" fill="none" xmlns="http://www.w3.org/2000/svg">
<path d="M18.3018 44.3524C22.3015 48.3521 28.8242 48.3521 32.8239 44.3524C36.8236 40.3526 36.8236 33.83 32.8239 29.8303L18.3018 44.3524ZM44.0231 0.201665L7.10263 0.170898C3.68748 0.170898 0.949219 2.90916 0.949219 6.32431V55.5516C0.949219 58.9667 3.68748 61.705 7.10263 61.705H44.0231C47.4382 61.705 50.1765 58.9667 50.1765 55.5516V6.32431C50.1765 2.90916 47.4382 0.201665 44.0231 0.201665ZM22.4861 9.40101C24.1783 9.40101 25.5628 10.7855 25.5628 12.4777C25.5628 14.1699 24.1783 15.5544 22.4861 15.5544C20.794 15.5544 19.4094 14.1699 19.4094 12.4777C19.4094 10.7855 20.794 9.40101 22.4861 9.40101ZM13.256 9.40101C14.9482 9.40101 16.3327 10.7855 16.3327 12.4777C16.3327 14.1699 14.9482 15.5544 13.256 15.5544C11.5638 15.5544 10.1793 14.1699 10.1793 12.4777C10.1793 10.7855 11.5638 9.40101 13.256 9.40101ZM25.5628 52.4749C17.0711 52.4749 10.1793 45.583 10.1793 37.0913C10.1793 28.5996 17.0711 21.7078 25.5628 21.7078C34.0546 21.7078 40.9464 28.5996 40.9464 37.0913C40.9464 45.583 34.0546 52.4749 25.5628 52.4749Z" fill="#377DBE"/>
</svg>
