<svg width="16" height="17" viewBox="0 0 16 17" fill="none" xmlns="http://www.w3.org/2000/svg">
<path d="M11.5312 10.5156L10.9844 11.1875C10.5781 10.8438 10.1224 10.5755 9.61719 10.3828C9.11198 10.1901 8.57812 10.0938 8.01562 10.0938C7.45312 10.0938 6.91927 10.1901 6.41406 10.3828C5.90885 10.5755 5.45833 10.8438 5.0625 11.1875L4.5 10.5156C4.97917 10.1198 5.51823 9.80729 6.11719 9.57812C6.71615 9.34896 7.34896 9.23438 8.01562 9.23438C8.69271 9.23438 9.33073 9.34896 9.92969 9.57812C10.5286 9.80729 11.0625 10.1198 11.5312 10.5156ZM8.01562 6.0625C8.54688 6.0625 9.06771 6.10938 9.57812 6.20312C10.0781 6.29688 10.5625 6.42708 11.0312 6.59375C11.5 6.76042 11.9531 6.96875 12.3906 7.21875C12.8177 7.46875 13.2188 7.75 13.5938 8.0625L13.0469 8.71875C12.7031 8.4375 12.3385 8.1875 11.9531 7.96875C11.5573 7.75 11.1484 7.5625 10.7266 7.40625C10.3047 7.25 9.86979 7.13021 9.42188 7.04688C8.96354 6.96354 8.49479 6.92188 8.01562 6.92188C7.53646 6.92188 7.07292 6.96354 6.625 7.04688C6.16667 7.13021 5.72656 7.25 5.30469 7.40625C4.88281 7.5625 4.47396 7.75 4.07812 7.96875C3.69271 8.1875 3.32812 8.4375 2.98438 8.71875L2.4375 8.0625C2.8125 7.75 3.21875 7.46875 3.65625 7.21875C4.08333 6.96875 4.53125 6.76042 5 6.59375C5.46875 6.42708 5.95833 6.29688 6.46875 6.20312C6.96875 6.10938 7.48438 6.0625 8.01562 6.0625ZM15.0938 6.28125L15.6562 5.625C15.125 5.19792 14.5677 4.8125 13.9844 4.46875C13.3906 4.13542 12.7708 3.85156 12.125 3.61719C11.4792 3.38281 10.8073 3.20312 10.1094 3.07812C9.42188 2.96354 8.71354 2.90625 7.98438 2.90625C7.26562 2.90625 6.55729 2.96354 5.85938 3.07812C5.17188 3.20312 4.50781 3.38021 3.86719 3.60938C3.22656 3.83854 2.60938 4.11979 2.01562 4.45312C1.43229 4.78646 0.880208 5.16146 0.359375 5.57812L0.90625 6.25C1.39583 5.86458 1.91146 5.51562 2.45312 5.20312C3.00521 4.90104 3.57812 4.64323 4.17188 4.42969C4.76562 4.21615 5.38021 4.05208 6.01562 3.9375C6.66146 3.82292 7.31771 3.76562 7.98438 3.76562C8.66146 3.76562 9.31771 3.82292 9.95312 3.9375C10.599 4.05208 11.2214 4.21615 11.8203 4.42969C12.4193 4.64323 12.9948 4.90625 13.5469 5.21875C14.0885 5.53125 14.6042 5.88542 15.0938 6.28125ZM7.34375 13.8281C7.26042 13.7448 7.19531 13.6458 7.14844 13.5312C7.10156 13.4167 7.07812 13.2969 7.07812 13.1719C7.07812 13.0469 7.10156 12.9297 7.14844 12.8203C7.19531 12.7109 7.26042 12.6094 7.34375 12.5156C7.42708 12.4323 7.52604 12.3672 7.64062 12.3203C7.75521 12.2734 7.875 12.25 8 12.25C8.125 12.25 8.24479 12.2734 8.35938 12.3203C8.47396 12.3672 8.57292 12.4323 8.65625 12.5156C8.73958 12.6094 8.80469 12.7109 8.85156 12.8203C8.89844 12.9297 8.92188 13.0469 8.92188 13.1719C8.92188 13.2969 8.89844 13.4167 8.85156 13.5312C8.80469 13.6458 8.73958 13.7448 8.65625 13.8281C8.57292 13.9115 8.47396 13.9766 8.35938 14.0234C8.24479 14.0703 8.125 14.0938 8 14.0938C7.875 14.0938 7.75521 14.0703 7.64062 14.0234C7.52604 13.9766 7.42708 13.9115 7.34375 13.8281Z" fill="#828282"/>
</svg>
