<svg width="18" height="17" viewBox="0 0 18 17" fill="none" xmlns="http://www.w3.org/2000/svg">
<g clip-path="url(#clip0_412_3753)">
<path d="M16.4984 14.4371C16.4984 14.5725 16.4854 14.7105 16.4594 14.8512C16.4333 14.9918 16.3943 15.1246 16.3422 15.2496C16.2797 15.3746 16.2094 15.4944 16.1313 15.609C16.0531 15.7236 15.962 15.8277 15.8578 15.9215C15.7536 16.0152 15.6417 16.0986 15.5219 16.1715C15.4021 16.2444 15.2745 16.3017 15.1391 16.3434C15.0141 16.385 14.8813 16.4137 14.7406 16.4293C14.6 16.4449 14.4568 16.4475 14.3109 16.4371C13.7172 16.3746 13.1286 16.2757 12.5453 16.1402C11.962 16.0048 11.3891 15.8382 10.8266 15.6402C10.2641 15.4423 9.71719 15.2079 9.18594 14.9371C8.65469 14.6767 8.13385 14.385 7.62344 14.0621C7.15469 13.76 6.70677 13.4371 6.27969 13.0934C5.84219 12.7496 5.43073 12.3824 5.04531 11.9918C4.6599 11.6012 4.2901 11.1871 3.93594 10.7496C3.59219 10.3225 3.27448 9.87461 2.98281 9.40586C2.64948 8.90586 2.3526 8.38503 2.09219 7.84336C1.82135 7.30169 1.58698 6.74961 1.38906 6.18711C1.19115 5.62461 1.02448 5.05169 0.889062 4.46836C0.753646 3.87461 0.654688 3.28086 0.592188 2.68711C0.581771 2.54128 0.584375 2.40065 0.6 2.26523C0.615625 2.12982 0.644271 1.9944 0.685938 1.85898C0.738021 1.73398 0.797917 1.61159 0.865625 1.4918C0.933333 1.372 1.01406 1.26003 1.10781 1.15586C1.20156 1.05169 1.30573 0.957942 1.42031 0.874609C1.5349 0.791276 1.65469 0.723567 1.77969 0.671484C1.90469 0.619401 2.0349 0.577734 2.17031 0.546484C2.30573 0.515234 2.44635 0.499609 2.59219 0.499609H4.82656C5.07656 0.499609 5.31354 0.541276 5.5375 0.624609C5.76146 0.707942 5.96719 0.827734 6.15469 0.983984C6.34219 1.14023 6.49323 1.32513 6.60781 1.53867C6.7224 1.75221 6.79531 1.97878 6.82656 2.21836C6.87865 2.56211 6.94635 2.90065 7.02969 3.23398C7.11302 3.56732 7.21198 3.89544 7.32656 4.21836C7.39948 4.39544 7.44115 4.58034 7.45156 4.77305C7.46198 4.96575 7.45156 5.15586 7.42031 5.34336C7.37865 5.53086 7.31094 5.70794 7.21719 5.87461C7.12344 6.04128 7.00885 6.19232 6.87344 6.32773L6.20156 7.01523C6.44115 7.40065 6.69635 7.77044 6.96719 8.12461C7.24844 8.47878 7.54792 8.81471 7.86562 9.13242C8.18333 9.45013 8.51927 9.74961 8.87344 10.0309C9.23802 10.3121 9.61302 10.5725 9.99844 10.8121L10.6703 10.1246C10.8057 9.98919 10.9594 9.87721 11.1313 9.78867C11.3031 9.70013 11.4776 9.63503 11.6547 9.59336C11.8422 9.55169 12.0323 9.53867 12.225 9.5543C12.4177 9.56992 12.6026 9.60898 12.7797 9.67148C13.1026 9.79648 13.4307 9.90065 13.7641 9.98398C14.0974 10.0673 14.4359 10.1298 14.7797 10.1715C15.0297 10.2027 15.2615 10.2783 15.475 10.398C15.6885 10.5178 15.8734 10.6715 16.0297 10.859C16.1859 11.0465 16.3057 11.2548 16.3891 11.484C16.4724 11.7132 16.5089 11.9527 16.4984 12.2027V14.4371ZM15.4984 12.1871V12.1715C15.5089 12.0569 15.4932 11.9397 15.4516 11.8199C15.4099 11.7001 15.3474 11.5934 15.2641 11.4996C15.1911 11.4059 15.1 11.3303 14.9906 11.273C14.8813 11.2158 14.7693 11.1767 14.6547 11.1559C14.2693 11.1142 13.8917 11.0465 13.5219 10.9527C13.1521 10.859 12.7901 10.7444 12.4359 10.609C12.3422 10.5777 12.2484 10.5569 12.1547 10.5465C12.0609 10.5361 11.9672 10.5413 11.8734 10.5621C11.7797 10.5829 11.6911 10.6168 11.6078 10.6637C11.5245 10.7105 11.4464 10.7652 11.3734 10.8277L10.4203 11.7809C10.3474 11.8642 10.2536 11.9137 10.1391 11.9293C10.0245 11.9449 9.92031 11.9267 9.82656 11.8746C9.33698 11.5934 8.86823 11.2809 8.42031 10.9371C7.9724 10.6038 7.55312 10.2392 7.1625 9.84336C6.77187 9.44753 6.40469 9.02565 6.06094 8.57773C5.7276 8.12982 5.42031 7.66628 5.13906 7.18711C5.08698 7.08294 5.06615 6.97617 5.07656 6.8668C5.08698 6.75742 5.13385 6.66107 5.21719 6.57773L6.17031 5.62461C6.23281 5.56211 6.2875 5.48919 6.33437 5.40586C6.38125 5.32253 6.4151 5.23398 6.43594 5.14023C6.45677 5.04648 6.46458 4.95013 6.45937 4.85117C6.45417 4.75221 6.43073 4.66107 6.38906 4.57773C6.25365 4.21315 6.14167 3.84596 6.05312 3.47617C5.96458 3.10638 5.89427 2.73398 5.84219 2.35898C5.82135 2.2444 5.78229 2.13242 5.725 2.02305C5.66771 1.91367 5.59219 1.81732 5.49844 1.73398C5.4151 1.66107 5.31615 1.60378 5.20156 1.56211C5.08698 1.52044 4.96719 1.49961 4.84219 1.49961H2.59219C2.51927 1.49961 2.44896 1.50742 2.38125 1.52305C2.31354 1.53867 2.24844 1.5569 2.18594 1.57773C2.12344 1.60898 2.06354 1.64544 2.00625 1.68711C1.94896 1.72878 1.89427 1.77565 1.84219 1.82773C1.80052 1.87982 1.76146 1.9345 1.725 1.9918C1.68854 2.04909 1.6599 2.11419 1.63906 2.18711C1.61823 2.24961 1.6026 2.31471 1.59219 2.38242C1.58177 2.45013 1.58177 2.51523 1.59219 2.57773C1.65469 3.14023 1.74844 3.69753 1.87344 4.24961C1.99844 4.79128 2.15208 5.32513 2.33438 5.85117C2.51667 6.37721 2.73281 6.89544 2.98281 7.40586C3.23281 7.90586 3.51406 8.39544 3.82656 8.87461C4.0974 9.31211 4.39427 9.72878 4.71719 10.1246C5.0401 10.5309 5.38385 10.9163 5.74844 11.2809C6.11302 11.6454 6.49844 11.9892 6.90469 12.3121C7.31094 12.635 7.73281 12.9371 8.17031 13.2184C8.63906 13.5204 9.12344 13.7965 9.62344 14.0465C10.1234 14.2965 10.6365 14.5152 11.1625 14.7027C11.6885 14.8902 12.2224 15.0465 12.7641 15.1715C13.3057 15.2861 13.8578 15.3746 14.4203 15.4371C14.4828 15.4475 14.5505 15.4475 14.6234 15.4371C14.6964 15.4267 14.7641 15.4111 14.8266 15.3902C14.8891 15.3694 14.9516 15.3408 15.0141 15.3043C15.0766 15.2678 15.1339 15.2288 15.1859 15.1871C15.238 15.135 15.2823 15.0803 15.3188 15.023C15.3552 14.9658 15.3891 14.9059 15.4203 14.8434C15.4516 14.7809 15.4724 14.7158 15.4828 14.648C15.4932 14.5803 15.4984 14.51 15.4984 14.4371V12.1871Z" fill="#828282"/>
</g>
<defs>
<clipPath id="clip0_412_3753">
<rect width="17" height="16" fill="white" transform="matrix(1 0 0 -1 0.5 16.5)"/>
</clipPath>
</defs>
</svg>
