<svg width="16" height="16" viewBox="0 0 16 16" fill="none" xmlns="http://www.w3.org/2000/svg">
<path d="M3.75 0.890625H12.25C12.5521 0.890625 12.8073 0.994792 13.0156 1.20312C13.224 1.41146 13.3281 1.66667 13.3281 1.96875V13.1562C13.3281 13.4479 13.224 13.6979 13.0156 13.9062C12.8073 14.1146 12.5521 14.2188 12.25 14.2188H3.75C3.44792 14.2188 3.19271 14.1146 2.98438 13.9062C2.77604 13.6979 2.67188 13.4479 2.67188 13.1562V1.96875C2.67188 1.66667 2.77604 1.41146 2.98438 1.20312C3.19271 0.994792 3.44792 0.890625 3.75 0.890625ZM12.5781 5.78125V1.64062H3.42188V5.78125H5.5V4.39062H6.25V5.78125H12.5781ZM3.42188 6.53125V13.4688H12.5781V6.53125H6.25V8.625H5.5V6.53125H3.42188Z" fill="#828282"/>
</svg>
