<svg width="287" height="300" viewBox="0 0 287 300" fill="none" xmlns="http://www.w3.org/2000/svg">
<path fill-rule="evenodd" clip-rule="evenodd" d="M227 154L227 89.8762L217.128 83H217L217 154H227Z" fill="black"/>
<path d="M163.008 243.672C159.68 243.672 157.056 245.08 155.136 247.896C153.376 250.424 152.496 253.56 152.496 257.304C152.496 261.08 153.376 264.232 155.136 266.76C157.056 269.576 159.68 270.984 163.008 270.984C166.336 270.984 168.96 269.576 170.88 266.76C172.608 264.232 173.472 261.08 173.472 257.304C173.472 253.592 172.608 250.456 170.88 247.896C168.96 245.08 166.336 243.672 163.008 243.672ZM163.008 238.824C168.128 238.824 172.112 240.728 174.96 244.536C177.488 247.928 178.736 252.184 178.704 257.304C178.64 262.904 177.328 267.32 174.768 270.552C171.984 274.072 168.064 275.832 163.008 275.832C157.984 275.832 154.048 274.072 151.2 270.552C148.576 267.256 147.264 262.84 147.264 257.304C147.264 252.12 148.512 247.848 151.008 244.488C153.824 240.712 157.824 238.824 163.008 238.824ZM201.365 244.968C199.765 244.168 197.621 243.768 194.933 243.768C190.773 243.768 188.693 245.304 188.693 248.376C188.693 249.848 189.989 251.4 192.581 253.032C194.725 254.408 196.405 255.496 197.621 256.296C198.837 257.096 199.573 257.624 199.829 257.88C202.421 260.152 203.717 262.776 203.717 265.752C203.717 269.08 202.437 271.688 199.877 273.576C197.701 275.176 195.093 275.976 192.053 275.976C189.013 275.976 186.229 275.416 183.701 274.296L184.325 268.968C186.725 270.312 189.365 270.984 192.245 270.984C196.501 270.984 198.629 269.112 198.629 265.368C198.629 263.896 197.333 262.296 194.741 260.568C192.405 259 190.629 257.8 189.413 256.968C188.229 256.136 187.589 255.688 187.493 255.624C184.933 253.416 183.653 251 183.653 248.376C183.653 245.4 184.805 243.016 187.109 241.224C189.189 239.624 191.813 238.824 194.981 238.824C197.605 238.824 200.021 239.24 202.229 240.072L201.365 244.968ZM230.738 244.296H220.993V275.064H215.761V244.296H206.065V239.544H230.738V244.296ZM252.67 275.256H234.43V239.448H252.142V244.344H239.662V254.328H251.47V259.224H239.662V270.312H252.67V275.256ZM276.906 275.064H258.858V239.544H264.042V270.12H276.906V275.064Z" fill="black"/>
<path d="M30.72 275.256H24.96L9.6 248.424V275.256H4.416V239.448H9.936L25.536 266.712V239.448H30.72V275.256ZM56.331 275.256H38.091V239.448H55.803V244.344H43.323V254.328H55.131V259.224H43.323V270.312H56.331V275.256ZM79.1753 244.968C77.5752 244.168 75.4312 243.768 72.7432 243.768C68.5832 243.768 66.5032 245.304 66.5032 248.376C66.5032 249.848 67.7992 251.4 70.3913 253.032C72.5353 254.408 74.2153 255.496 75.4312 256.296C76.6473 257.096 77.3833 257.624 77.6392 257.88C80.2312 260.152 81.5272 262.776 81.5272 265.752C81.5272 269.08 80.2472 271.688 77.6872 273.576C75.5112 275.176 72.9032 275.976 69.8632 275.976C66.8232 275.976 64.0392 275.416 61.5112 274.296L62.1352 268.968C64.5352 270.312 67.1752 270.984 70.0552 270.984C74.3112 270.984 76.4392 269.112 76.4392 265.368C76.4392 263.896 75.1432 262.296 72.5512 260.568C70.2152 259 68.4392 257.8 67.2232 256.968C66.0392 256.136 65.3992 255.688 65.3032 255.624C62.7432 253.416 61.4632 251 61.4632 248.376C61.4632 245.4 62.6152 243.016 64.9192 241.224C66.9992 239.624 69.6232 238.824 72.7912 238.824C75.4152 238.824 77.8313 239.24 80.0393 240.072L79.1753 244.968ZM108.548 244.296H98.8035V275.064H93.5715V244.296H83.8755V239.544H108.548V244.296Z" fill="black"/>
<path fill-rule="evenodd" clip-rule="evenodd" d="M169.932 35L73 100L96.3278 100L176.798 46.0388L169.932 35Z" fill="black"/>
<path fill-rule="evenodd" clip-rule="evenodd" d="M170.338 35L271 100H247.035L163.284 45.92L170.338 35Z" fill="black"/>
<path fill-rule="evenodd" clip-rule="evenodd" d="M144.165 30.6962C141.139 29.5185 138.019 28.4943 134.811 27.6348C86.5326 14.6986 36.7343 43.998 23.5837 93.0769C10.433 142.156 38.9099 192.429 87.1886 205.365C93.7965 207.136 100.433 208.115 107 208.361V195.344C101.54 195.107 96.0321 194.276 90.5532 192.808C49.4034 181.782 24.7959 138.781 36.1407 96.4415C47.4855 54.1023 90.2968 29.1658 131.447 40.1919C132.289 40.4175 133.124 40.6566 133.952 40.9088L144.165 30.6962ZM122 207.65C118.701 208.088 115.363 208.343 112 208.407V195.395C115.368 195.319 118.707 195.019 122 194.506V207.65ZM127 206.841C147.637 202.899 166.458 191.767 180.053 175.45L168.604 168.84C157.608 181.302 142.99 189.961 127 193.555V206.841Z" fill="black"/>
<path fill-rule="evenodd" clip-rule="evenodd" d="M112 92.744L112 277H122L122 86H121.872L112 92.744Z" fill="black"/>
<line x1="122" y1="148.5" x2="217" y2="148.5" stroke="black" stroke-width="11"/>
<circle cx="136" cy="117" r="9" fill="black"/>
<path d="M150.5 137H130.5H130C127.6 137 127 135.333 127 134.5V133.5V130C127 128.4 128.667 127.667 129.5 127.5H130.5H146.5V127V117C146.5 115.4 148.167 115 149 115H153.5C155.1 115 155.5 116.333 155.5 117V133C155.5 135.4 152.167 136.667 150.5 137Z" fill="black"/>
<path d="M159 136.117V115H201.5C206.3 115 207.833 119.333 208 121.5V136.117H159Z" fill="black"/>
<path fill-rule="evenodd" clip-rule="evenodd" d="M125 254.571V257.971H139.429H139.939V274H143V240.971V240H139.939V254.086L139.429 254.571H125Z" fill="black"/>
<path d="M125 254.571V253.571H124V254.571H125ZM125 257.971H124V258.971H125V257.971ZM139.939 257.971H140.939V256.971H139.939V257.971ZM139.939 274H138.939V275H139.939V274ZM143 274V275H144V274H143ZM143 240H144V239H143V240ZM139.939 240V239H138.939V240H139.939ZM139.939 254.086L140.628 254.81L140.939 254.514V254.086H139.939ZM139.429 254.571V255.571H139.828L140.118 255.296L139.429 254.571ZM124 254.571V257.971H126V254.571H124ZM139.429 256.971H125V258.971H139.429V256.971ZM139.939 256.971H139.429V258.971H139.939V256.971ZM140.939 274V257.971H138.939V274H140.939ZM143 273H139.939V275H143V273ZM142 240.971V274H144V240.971H142ZM142 240V240.971H144V240H142ZM139.939 241H143V239H139.939V241ZM140.939 254.086V240H138.939V254.086H140.939ZM140.118 255.296L140.628 254.81L139.249 253.361L138.739 253.847L140.118 255.296ZM125 255.571H139.429V253.571H125V255.571Z" fill="black"/>
</svg>
